<svg xmlns="http://www.w3.org/2000/svg" viewBox="0 0 495.11 439.45"><defs><style>.cls-1{fill:#387bfe;}.cls-2{fill:#8dd1fe;}</style></defs><g id="Layer_2" data-name="Layer 2"><g id="Layer_1-2" data-name="Layer 1"><path class="cls-1" d="M445.86,99.47V30c0-22.25-23.22-36.73-43-26.85-34.92,17.42-66.07,31.45-95,42.54S252.27,65.08,226.33,71a27.78,27.78,0,0,0-25.19-16.29H69.23A27.77,27.77,0,0,0,41.48,82.42v1.66L11.69,99.17A21.11,21.11,0,0,0,0,118.17v81.07a21.22,21.22,0,0,0,11.69,19l29.79,15.08V235a27.77,27.77,0,0,0,27.75,27.75h3L124.06,402a57.41,57.41,0,0,0,53.85,37.49c40.12,0,67.8-40.2,53.85-77.46l-37-99.25h6.34a27.78,27.78,0,0,0,25.19-16.28C278.21,258.3,333,279.34,402.88,314.25c19.91,10,43-4.82,43-26.84V218a60.25,60.25,0,0,0,0-118.48Zm-404.38,117-23-11.69a6.12,6.12,0,0,1-3.4-5.51V118.17a6.31,6.31,0,0,1,3.4-5.58l23-11.61Zm176.1,150.83a42.32,42.32,0,1,1-79.34,29.49l-49.93-134h90.35l4.23,11.39A44.76,44.76,0,0,0,158.68,314a45.24,45.24,0,0,0,45.17,45.17,46.8,46.8,0,0,0,10.26-1.2Zm-8.75-23.6a28,28,0,0,1-5,.45A30.13,30.13,0,0,1,173.76,314a29.69,29.69,0,0,1,14.48-25.64Zm5-108.68a12.69,12.69,0,0,1-12.67,12.67H69.23A12.69,12.69,0,0,1,56.56,235V82.42A12.7,12.7,0,0,1,69.23,69.75H201.14a12.7,12.7,0,0,1,12.67,12.67Zm217,52.42c0,10.86-11.39,18.25-21.12,13.34-71.34-35.67-127.45-57.16-180.77-69.3V85.89c53.32-12.06,109.43-33.56,180.77-69.23,9.58-5,21.12,2.49,21.12,13.35Zm15.08-84.85V114.85a45.23,45.23,0,0,1,0,87.71Z"/><path class="cls-2" d="M208.83,343.67a28,28,0,0,1-5,.45A30.13,30.13,0,0,1,173.76,314a29.69,29.69,0,0,1,14.48-25.64Z"/><path class="cls-2" d="M213.81,82.42V235a12.69,12.69,0,0,1-12.67,12.67H69.23A12.69,12.69,0,0,1,56.56,235V82.42A12.7,12.7,0,0,1,69.23,69.75H201.14A12.7,12.7,0,0,1,213.81,82.42Z"/><path class="cls-2" d="M480,158.67a45.42,45.42,0,0,1-34.17,43.89V114.85A45.34,45.34,0,0,1,480,158.67Z"/></g></g></svg>