<svg xmlns="http://www.w3.org/2000/svg" viewBox="0 0 495.69 491.67"><defs><style>.cls-1{fill:#387bfe;}.cls-2{fill:#8dd1fe;}</style></defs><g id="Layer_2" data-name="Layer 2"><g id="Layer_1-2" data-name="Layer 1"><path class="cls-1" d="M382.64,393.22l-52.95-52.86a36.38,36.38,0,0,0-51.58,0l-6,6-1.81,1.81c-.83.75-2,1.89-3.46,3.39-11,11-48.35-8.44-83.34-43.44s-54.38-72.32-43.36-83.33c4.44-4.45,12.67-12.14,15.83-16.82a36.6,36.6,0,0,0,0-40.5c-3.24-4.83-53.24-54.22-57.54-58.45a36.4,36.4,0,0,0-51.59,0l-3.24,3.25-3,3c-3.69,3.7-11.46,11.47-26.32,26.32C-6.44,162.3-4.55,198.12,19.65,245.18c20.44,39.59,55.44,85.22,98.5,128.36S206.84,451.6,246.51,472c32.8,16.89,77.45,31.6,103.55,5.5l23.53-23.53.37-.37.68-.68.83-.83.08-.08.68-.68.07-.07a3.31,3.31,0,0,1,.53-.53,1.27,1.27,0,0,1,.45-.45l.08-.08.07-.07c1.28-1.36,3-3,5.21-5.21A36.56,36.56,0,0,0,382.64,393.22ZM57.44,119.69c8.14-8.07,22.25-8.07,30.32,0,2.48,2.49,53.69,53.32,55.58,56.18a21.46,21.46,0,0,1,0,23.76,31.33,31.33,0,0,1-4.45,5.05L55.63,121.5ZM339.35,466.76c-19.69,19.68-57.62,6.41-86-8.23-38.24-19.68-82.51-53.62-124.51-95.7s-76.1-86.28-95.78-124.51c-14.56-28.43-27.83-66.37-8.22-86L45,132.21l83.34,83.33c-20.21,23.08,10.94,69.76,44.5,103.32s80.16,64.71,103.32,44.5l83.33,83.26Zm32.58-32.59L370.12,436,286.93,352.8l1.81-1.81c8.07-8.07,22.25-8.07,30.32,0l52.87,52.87A21.43,21.43,0,0,1,371.93,434.17Z"/><path class="cls-2" d="M359.48,446.62l-20.13,20.14c-19.69,19.68-57.62,6.41-86-8.23-38.24-19.68-82.51-53.62-124.51-95.7s-76.1-86.28-95.78-124.51c-14.56-28.43-27.83-66.37-8.22-86L45,132.21l83.34,83.33c-20.21,23.08,10.94,69.76,44.5,103.32s80.16,64.71,103.32,44.5Z"/><path class="cls-1" d="M495.61,151.06C495.38,67.28,426.83,0,344.4,0h-.08c-83.09,0-151,68-151.21,151.06v.45c.24,83.56,68.63,151.06,151.21,151.06h.08c82.42,0,151-67.29,151.21-151.06,0-.07.08-.15.08-.22S495.61,151.14,495.61,151.06Zm-27.83,7.77h12.37a135.22,135.22,0,0,1-14.4,53.85L455,206.42a7.63,7.63,0,0,0-10.34,2.79,7.44,7.44,0,0,0,2.79,10.25l10.79,6.26a138.51,138.51,0,0,1-39.44,39.45l-6.26-10.79a7.47,7.47,0,0,0-10.26-2.79,7.55,7.55,0,0,0-2.79,10.33l6.26,10.79a135.37,135.37,0,0,1-53.85,14.4V274.67a7.54,7.54,0,1,0-15.08,0v12.44A134.65,134.65,0,0,1,283,272.71l6.18-10.79a7.53,7.53,0,1,0-13-7.54l-6.26,10.79a136.28,136.28,0,0,1-39.37-39.45l10.78-6.26A7.42,7.42,0,0,0,244,209.21a7.53,7.53,0,0,0-10.26-2.79L223,212.68a135.06,135.06,0,0,1-14.41-53.85H221a7.55,7.55,0,0,0,0-15.09H208.57A135,135,0,0,1,223,89.9l10.78,6.18A7.39,7.39,0,0,0,244,93.37,7.54,7.54,0,0,0,241.3,83l-10.78-6.26a136,136,0,0,1,39.37-39.36l6.26,10.78A7.62,7.62,0,0,0,286.48,51a7.52,7.52,0,0,0,2.71-10.33L283,29.87a134.66,134.66,0,0,1,53.85-14.41V27.9a7.54,7.54,0,1,0,15.08,0V15.46a135.38,135.38,0,0,1,53.85,14.41l-6.26,10.78a7.54,7.54,0,1,0,13.05,7.54l6.26-10.78a136.48,136.48,0,0,1,39.44,39.44L447.49,83a7.57,7.57,0,0,0-2.79,10.34A7.49,7.49,0,0,0,455,96.08l10.71-6.18a135.13,135.13,0,0,1,14.4,53.84H467.78a7.55,7.55,0,0,0,0,15.09Z"/><path class="cls-1" d="M385.76,143.73H351.91V97.36a7.54,7.54,0,1,0-15.08,0v53.91a7.54,7.54,0,0,0,7.54,7.55h41.39a7.55,7.55,0,0,0,0-15.09Z"/></g></g></svg>