<svg xmlns="http://www.w3.org/2000/svg" viewBox="0 0 497.68 496.62"><defs><style>.cls-1{fill:#387bfe;}.cls-2{fill:#8dd1fe;}</style></defs><g id="Layer_2" data-name="Layer 2"><g id="Layer_1-2" data-name="Layer 1"><path class="cls-1" d="M432.14,56.11h-11V27.53a27.57,27.57,0,0,0-55.13,0V56.11H324.67V27.53a27.57,27.57,0,0,0-55.13,0V56.11h-41.4V27.53a27.57,27.57,0,0,0-55.13,0V56.11H131.68V27.53a27.57,27.57,0,0,0-55.13,0V56.11H65.61A65.66,65.66,0,0,0,0,121.72V431a65.66,65.66,0,0,0,65.61,65.61H432.14A65.65,65.65,0,0,0,497.68,431V121.72A65.65,65.65,0,0,0,432.14,56.11ZM381.08,27.53a12.48,12.48,0,0,1,25,0V96.61a12.48,12.48,0,0,1-25,0Zm-96.46,0a12.49,12.49,0,0,1,25,0V96.61a12.49,12.49,0,0,1-25,0Zm-96.53,0a12.48,12.48,0,0,1,25,0V96.61a12.48,12.48,0,0,1-25,0Zm-96.46,0a12.48,12.48,0,0,1,25,0V96.61a12.48,12.48,0,0,1-25,0ZM482.59,431a50.52,50.52,0,0,1-50.45,50.53H65.61A50.54,50.54,0,0,1,15.08,431V177.08H482.59Zm0-269H15.08V121.72A50.58,50.58,0,0,1,65.61,71.19H76.55V96.61a27.57,27.57,0,0,0,55.13,0V71.19H173V96.61a27.57,27.57,0,0,0,55.13,0V71.19h41.4V96.61a27.57,27.57,0,0,0,55.13,0V71.19H366V96.61a27.57,27.57,0,0,0,55.13,0V71.19h11a50.56,50.56,0,0,1,50.45,50.53Z"/><path class="cls-2" d="M482.59,121.72V162H15.08V121.72A50.58,50.58,0,0,1,65.61,71.19H76.55V96.61a27.57,27.57,0,0,0,55.13,0V71.19H173V96.61a27.57,27.57,0,0,0,55.13,0V71.19h41.4V96.61a27.57,27.57,0,0,0,55.13,0V71.19H366V96.61a27.57,27.57,0,0,0,55.13,0V71.19h11A50.56,50.56,0,0,1,482.59,121.72Z"/><path class="cls-1" d="M385.61,276.48H299.18l16.36-24.29a7.5,7.5,0,0,0-12.44-8.37l-22,32.66H207.55l-22-32.66a7.54,7.54,0,0,0-10.49-2,7.43,7.43,0,0,0-2,10.4l16.36,24.29H102.94a7.54,7.54,0,1,0,0,15.08H118.1l17.65,88.92A43.12,43.12,0,0,0,178,415.09H310.57a43.12,43.12,0,0,0,42.23-34.61l17.65-88.92h15.16a7.54,7.54,0,1,0,0-15.08ZM338,377.54A28,28,0,0,1,310.57,400H178a28,28,0,0,1-27.45-22.47l-17-86H355.06Z"/><path class="cls-2" d="M133.49,291.56l17,86A28,28,0,0,0,178,400H310.57A28,28,0,0,0,338,377.54l17-86Zm68.93,74.82a7.54,7.54,0,0,1-15.08,0V325.27a7.54,7.54,0,0,1,15.08,0Zm49.4,0a7.55,7.55,0,0,1-15.09,0V325.27a7.55,7.55,0,0,1,15.09,0Zm49.39,0a7.54,7.54,0,0,1-15.08,0V325.27a7.54,7.54,0,0,1,15.08,0Z"/><path class="cls-1" d="M251.82,325.27v41.11a7.55,7.55,0,0,1-15.09,0V325.27a7.55,7.55,0,0,1,15.09,0Z"/><path class="cls-1" d="M202.42,325.27v41.11a7.54,7.54,0,0,1-15.08,0V325.27a7.54,7.54,0,0,1,15.08,0Z"/><path class="cls-1" d="M301.21,325.27v41.11a7.54,7.54,0,0,1-15.08,0V325.27a7.54,7.54,0,0,1,15.08,0Z"/></g></g></svg>