<svg xmlns="http://www.w3.org/2000/svg" viewBox="0 0 497.92 469.21"><defs><style>.cls-1{fill:#387bfe;}.cls-2{fill:#8dd1fe;}</style></defs><g id="Layer_2" data-name="Layer 2"><g id="Layer_1-2" data-name="Layer 1"><path class="cls-1" d="M492.94,155.09c-5.95-25.34-16.81-48.34-30.69-65.16l3.17-43.66A43.27,43.27,0,0,0,419.19.11L271,10.82a61.45,61.45,0,0,0-39.22,18L18,242.43a61.87,61.87,0,0,0,0,87.33L135.62,447.41a62,62,0,0,0,87.41,0L234.34,436A116,116,0,0,0,398.45,271.91l11.08-11.08C461.27,306.46,514.66,248.61,492.94,155.09Zm-76.39,198A101.06,101.06,0,1,1,315.49,252,101.16,101.16,0,0,1,416.55,353.06ZM201.16,373l-8,8a19.54,19.54,0,0,1-27.6,0L84.41,299.89a19.67,19.67,0,0,1,0-27.6L221.14,135.56a18.28,18.28,0,0,1,25.72,0l82.88,82.88a18.26,18.26,0,0,1,3.77,20.07,108.58,108.58,0,0,0-18-1.59A116.28,116.28,0,0,0,199.35,353.06,114.73,114.73,0,0,0,201.16,373Zm181.6-192.23c-5.58-24-5.51-47.22-1.13-65.62,12.22,1.29,22.25-2.71,29.64-10.1,14.85-14.71,13.12-37.71,0-50.83A35.94,35.94,0,1,0,360.44,105a41,41,0,0,0,6.78,5.2c-5.35,20.82-5.5,46.68.91,73.91,6.18,26.77,17.34,49.55,30.92,65.84l-11.92,11.91a115.11,115.11,0,0,0-38.91-20.13,33.15,33.15,0,0,0-7.84-34l-82.81-82.8a33.25,33.25,0,0,0-47.06,0L73.78,261.58a34.63,34.63,0,0,0,0,48.95l81.14,81.15a34.49,34.49,0,0,0,48.88-.08l1.65-1.58a116.69,116.69,0,0,0,18.86,34.76l-12,11.92a46.68,46.68,0,0,1-66,0L28.75,319.13a46.61,46.61,0,0,1,0-66L242.41,39.4a47,47,0,0,1,29.64-13.57C273.56,25.75,420.84,15,422.35,15a28.17,28.17,0,0,1,28,30.17L439.62,193.33A46.72,46.72,0,0,1,426.05,223l-16.14,16.21C398.22,224.63,388.26,204.12,382.76,180.74ZM372.28,95.29c-.38-.3-.76-.6-1.13-.91a20.87,20.87,0,1,1,29.48-29.56,3,3,0,0,0,.38.53C388.57,70,378.76,80.58,372.28,95.29Zm34.46-15.91v.22a20.61,20.61,0,0,1-20.21,20.74C391.36,89.78,398.22,82.32,406.74,79.38ZM420.32,250l16.36-16.36a61.73,61.73,0,0,0,17.95-39.22l5.88-80.77a158.31,158.31,0,0,1,17.73,44.8C494.53,228.85,463.23,287.3,420.32,250Z"/><path class="cls-2" d="M406.74,79.38v.22a20.61,20.61,0,0,1-20.21,20.74C391.36,89.78,398.22,82.32,406.74,79.38Z"/><path class="cls-2" d="M401,65.35c-12.44,4.6-22.25,15.23-28.73,29.94-.38-.3-.76-.6-1.13-.91a20.87,20.87,0,1,1,29.48-29.56A3,3,0,0,0,401,65.35Z"/><path class="cls-2" d="M333.51,238.51a108.58,108.58,0,0,0-18-1.59A116.28,116.28,0,0,0,199.35,353.06,114.73,114.73,0,0,0,201.16,373l-8,8a19.54,19.54,0,0,1-27.6,0L84.41,299.89a19.67,19.67,0,0,1,0-27.6L221.14,135.56a18.28,18.28,0,0,1,25.72,0l82.88,82.88A18.26,18.26,0,0,1,333.51,238.51Z"/><path class="cls-1" d="M315.58,317.52a14,14,0,0,1,14,14,7.55,7.55,0,1,0,15.09,0,29.06,29.06,0,0,0-21.52-28v-5.4a7.55,7.55,0,0,0-15.09,0v5.39a29,29,0,0,0,7.55,57.08,14,14,0,1,1-14,14,7.54,7.54,0,0,0-15.08,0,29.06,29.06,0,0,0,21.55,28V408a7.55,7.55,0,1,0,15.09,0v-5.39a29,29,0,0,0-7.54-57.07,14,14,0,1,1,0-28Z"/></g></g></svg>