<svg xmlns="http://www.w3.org/2000/svg" viewBox="0 0 497.75 364.94"><defs><style>.cls-1{fill:#387bfe;}.cls-2{fill:#8dd1fe;}</style></defs><g id="Layer_2" data-name="Layer 2"><g id="Layer_1-2" data-name="Layer 1"><path class="cls-1" d="M457.55,92.39H410.49l25-25a39.54,39.54,0,0,0-56-55.88L298.8,92.39H198.2L117.42,11.54a39.54,39.54,0,0,0-56,55.88l25,25H40.2a40.2,40.2,0,1,0,0,80.39h5.65l21.2,138.39a62.34,62.34,0,0,0,61.54,53.77H369.17a62.36,62.36,0,0,0,61.54-53.62L451.9,172.78h5.65a40.2,40.2,0,1,0,0-80.39ZM390.28,22.25c9.2-9.2,25.34-9.2,34.54,0a24.38,24.38,0,0,1,0,34.46L389.23,92.39H320.07ZM72.17,56.71a24.4,24.4,0,0,1,0-34.46c9.2-9.2,25.34-9.2,34.54,0l70.22,70.14H107.77Zm343.6,252.42a47.24,47.24,0,0,1-46.6,40.73H128.59A47.25,47.25,0,0,1,82,309L61.09,172.78H436.66ZM457.55,157.7H40.2a25.12,25.12,0,1,1,0-50.23H457.55a25.12,25.12,0,1,1,0,50.23Z"/><path class="cls-2" d="M482.67,132.58a25.11,25.11,0,0,1-25.12,25.12H40.2a25.12,25.12,0,1,1,0-50.23H457.55A25.11,25.11,0,0,1,482.67,132.58Z"/><path class="cls-1" d="M248.88,192.16a26.68,26.68,0,0,0-26.7,26.62v77.46a26.7,26.7,0,1,0,53.39,0V218.78A26.68,26.68,0,0,0,248.88,192.16Zm11.61,104.08a11.62,11.62,0,0,1-23.23,0V218.78a11.62,11.62,0,0,1,23.23,0Z"/><path class="cls-2" d="M260.49,218.78v77.46a11.62,11.62,0,0,1-23.23,0V218.78a11.62,11.62,0,0,1,23.23,0Z"/><path class="cls-1" d="M161.62,192.16A26.62,26.62,0,0,0,135,218.78v77.46a26.66,26.66,0,1,0,53.32,0V218.78A26.64,26.64,0,0,0,161.62,192.16Zm11.61,104.08a11.58,11.58,0,1,1-23.15,0V218.78a11.58,11.58,0,0,1,23.15,0Z"/><path class="cls-2" d="M173.23,218.78v77.46a11.58,11.58,0,1,1-23.15,0V218.78a11.58,11.58,0,0,1,23.15,0Z"/><path class="cls-1" d="M336.06,192.16a26.62,26.62,0,0,0-26.62,26.62v77.46a26.66,26.66,0,1,0,53.31,0V218.78A26.63,26.63,0,0,0,336.06,192.16Zm11.61,104.08a11.58,11.58,0,1,1-23.15,0V218.78a11.58,11.58,0,0,1,23.15,0Z"/><path class="cls-2" d="M347.67,218.78v77.46a11.58,11.58,0,1,1-23.15,0V218.78a11.58,11.58,0,0,1,23.15,0Z"/></g></g></svg>