<svg xmlns="http://www.w3.org/2000/svg" viewBox="0 0 497.75 336.96"><defs><style>.cls-1{fill:#387bfe;}.cls-2{fill:#8dd1fe;}</style></defs><g id="Layer_2" data-name="Layer 2"><g id="Layer_1-2" data-name="Layer 1"><path class="cls-1" d="M394.28,151.66,384,108.75a16.13,16.13,0,0,0-15.61-12.22H329.19a16,16,0,0,0-16,16v42.91a16,16,0,0,0,16,16h49.48a15.67,15.67,0,0,0,12.59-6.11A15.84,15.84,0,0,0,394.28,151.66ZM379.42,156a.88.88,0,0,1-.75.3H329.19a.87.87,0,0,1-.9-.91V112.52a.87.87,0,0,1,.9-.9h39.15a.9.9,0,0,1,.9.68l10.33,42.91A1,1,0,0,1,379.42,156Z"/><path class="cls-1" d="M475.13,252.65V197.89a40.27,40.27,0,0,0-22.93-36.27l-28.06-19.16L412.83,95.78a40,40,0,0,0-39-30.77H315.77a33.8,33.8,0,0,0-17.57,4.9V32.58A32.58,32.58,0,0,0,265.69,0H32.58A32.64,32.64,0,0,0,0,32.58V234.77a32.58,32.58,0,0,0,26.55,31.9V279a26.74,26.74,0,0,0,26.69,26.69H87.79a52.28,52.28,0,0,0,95.77,0H339.3a52.29,52.29,0,0,0,95.78,0h36a26.66,26.66,0,0,0,4.08-53ZM111.84,15.08H168l.23,42.76L148.5,44a15,15,0,0,0-17.27,0L111.84,58ZM83.71,290.58H53.24A11.61,11.61,0,0,1,41.63,279V267.35H86.35a50.86,50.86,0,0,0-3,17.35A52.74,52.74,0,0,0,83.71,290.58Zm52,31.3a37.26,37.26,0,1,1,37.19-37.18A37.27,37.27,0,0,1,135.67,321.88Zm41-69.61a52,52,0,0,0-82,0c-22.48,0-52-.08-62.07-.08a17.5,17.5,0,0,1-17.5-17.42V32.58a17.52,17.52,0,0,1,17.5-17.5H96.76V58a15,15,0,0,0,8.07,13.27c5.66,2.71,11.31,2,15.46-1.13l19.53-13.88,19.61,13.88A14.88,14.88,0,0,0,183,58V15.08h82.73a17.5,17.5,0,0,1,17.42,17.5V252.19Zm158.6,38.31H187.64a52.63,52.63,0,0,0,.3-5.88,50.86,50.86,0,0,0-3-17.35h153a49.81,49.81,0,0,0-2.64,23.23Zm52,31.3a37.26,37.26,0,1,1,37.18-37.18A37.28,37.28,0,0,1,387.19,321.88Zm40.95-69.69a52.15,52.15,0,0,0-82,0h-48V91.48a19.33,19.33,0,0,1,17.57-11.39h58.07A25,25,0,0,1,398.2,99.32l11.92,49.48a7.78,7.78,0,0,0,3.09,4.45l31,21.19a4,4,0,0,0,1.14.6,25.09,25.09,0,0,1,14.25,18.63H448.5a23,23,0,1,0,0,45.93H460v12.59ZM460,208.75v15.77H448.5a7.89,7.89,0,1,1,0-15.77Zm11,81.83h-31.9a50.35,50.35,0,0,0,.3-5.88,50.86,50.86,0,0,0-3-17.35h34.61a11.62,11.62,0,1,1,0,23.23Z"/><path class="cls-2" d="M460,208.75v15.77H448.5a7.89,7.89,0,1,1,0-15.77Z"/><path class="cls-2" d="M168.18,57.84,148.5,44a15,15,0,0,0-17.27,0L111.84,58V15.08H168Z"/><path class="cls-2" d="M379.57,155.21a1,1,0,0,1-.15.83.88.88,0,0,1-.75.3H329.19a.87.87,0,0,1-.9-.91V112.52a.87.87,0,0,1,.9-.9h39.15a.9.9,0,0,1,.9.68Z"/><path class="cls-2" d="M482.67,279a11.62,11.62,0,0,1-11.62,11.61h-31.9a50.35,50.35,0,0,0,.3-5.88,50.86,50.86,0,0,0-3-17.35h34.61A11.63,11.63,0,0,1,482.67,279Z"/><path class="cls-2" d="M83.34,284.7a52.74,52.74,0,0,0,.37,5.88H53.24A11.61,11.61,0,0,1,41.63,279V267.35H86.35A50.86,50.86,0,0,0,83.34,284.7Z"/><path class="cls-2" d="M334.85,284.7a50.46,50.46,0,0,0,.38,5.88H187.64a52.63,52.63,0,0,0,.3-5.88,50.86,50.86,0,0,0-3-17.35h153A50.86,50.86,0,0,0,334.85,284.7Z"/><path class="cls-1" d="M346.27,185.17H327.39a7.54,7.54,0,1,0,0,15.08h18.88a7.54,7.54,0,1,0,0-15.08Z"/></g></g></svg>