<svg xmlns="http://www.w3.org/2000/svg" viewBox="0 0 497.75 487.28"><defs><style>.cls-1{fill:#387bfe;}.cls-2{fill:#8dd1fe;}</style></defs><g id="Layer_2" data-name="Layer 2"><g id="Layer_1-2" data-name="Layer 1"><path class="cls-1" d="M480.48,245.49h-3.69V188.7a40.9,40.9,0,0,0-32.43-39.89V89.68a40.83,40.83,0,0,0-40.8-40.8H302.8L268.94,9.81a28.38,28.38,0,0,0-42.92,0L192.16,48.88H57.09a57.1,57.1,0,0,0-57,56A6.13,6.13,0,0,0,0,106V430.19a57.15,57.15,0,0,0,57.09,57.09H436a40.83,40.83,0,0,0,40.81-40.8v-68h3.69a17.34,17.34,0,0,0,17.27-17.35V262.76A17.32,17.32,0,0,0,480.48,245.49ZM403.56,64a25.75,25.75,0,0,1,25.71,25.72v11.46H348.05L315.85,64ZM237.41,19.69a13.31,13.31,0,0,1,20.14,0l70.51,81.45H166.9ZM15.08,105.89A42.06,42.06,0,0,1,57.09,64h122l-32.21,37.18h-32.2a7.55,7.55,0,0,0,0,15.09H429.27V148H57.09a42.08,42.08,0,0,1-42-42ZM461.7,446.48A25.74,25.74,0,0,1,436,472.19H57.09a42.07,42.07,0,0,1-42-42V144.58a57.17,57.17,0,0,0,42,18.48H436A25.73,25.73,0,0,1,461.7,188.7v56.79H403.56a66.52,66.52,0,1,0,0,133H461.7Zm21-85.3a2.25,2.25,0,0,1-2.19,2.26H403.56a51.44,51.44,0,1,1,0-102.87h76.92a2.2,2.2,0,0,1,2.19,2.19Z"/><path class="cls-2" d="M429.27,89.68v11.46H348.05L315.85,64h87.71A25.75,25.75,0,0,1,429.27,89.68Z"/><path class="cls-2" d="M429.27,116.23V148H57.09a42.08,42.08,0,0,1-42-42v-.08A42.06,42.06,0,0,1,57.09,64h122l-32.21,37.18h-32.2a7.55,7.55,0,0,0,0,15.09Z"/><path class="cls-1" d="M401.75,283.28A28.72,28.72,0,1,0,430.47,312,28.7,28.7,0,0,0,401.75,283.28Zm0,42.35A13.64,13.64,0,1,1,415.39,312,13.61,13.61,0,0,1,401.75,325.63Z"/></g></g></svg>