<svg xmlns="http://www.w3.org/2000/svg" viewBox="0 0 457.86 480.86"><defs><style>.cls-1{fill:#387bfe;}.cls-2{fill:#8dd1fe;}</style></defs><g id="Layer_2" data-name="Layer 2"><g id="Layer_1-2" data-name="Layer 1"><path class="cls-1" d="M455.41,377,390.47,110.33V37.63A37.7,37.7,0,0,0,352.76,0H105.1A37.7,37.7,0,0,0,67.39,37.63v72.7L2.45,377c-13,52.79,27.15,103.85,81.6,103.85H373.81C428.18,480.86,468.38,430,455.41,377ZM82.47,37.63A22.59,22.59,0,0,1,105.1,15.08H352.76a22.59,22.59,0,0,1,22.63,22.55V103.7H82.47ZM373.81,465.77H84.05a68.91,68.91,0,0,1-67-85.22L80.81,118.78H377.05l63.73,261.77A68.84,68.84,0,0,1,373.81,465.77Z"/><path class="cls-2" d="M352.76,15.08H105.1A22.59,22.59,0,0,0,82.47,37.63V103.7H375.39V37.63A22.59,22.59,0,0,0,352.76,15.08ZM281.27,83.34H176.59a23.95,23.95,0,1,1,0-47.89H281.27a23.95,23.95,0,1,1,0,47.89Z"/><path class="cls-1" d="M281.27,35.45H176.59a23.95,23.95,0,1,0,0,47.89H281.27a23.95,23.95,0,1,0,0-47.89Zm0,32.8H176.59a8.86,8.86,0,1,1,0-17.72H281.27a8.86,8.86,0,1,1,0,17.72Z"/><path class="cls-1" d="M228.93,169.24a123,123,0,0,0,0,246.08c67.8,0,123-55.2,123-123.08A123.12,123.12,0,0,0,228.93,169.24Zm0,231a108,108,0,1,1,107.92-108A108.07,108.07,0,0,1,228.93,400.24Z"/><path class="cls-2" d="M228.93,184.32A108,108,0,1,0,336.85,292.24,108.05,108.05,0,0,0,228.93,184.32Zm0,100.38a31.19,31.19,0,0,1,7.54,61.46v8.75a7.54,7.54,0,1,1-15.08,0v-8.75a31.21,31.21,0,0,1-23.68-30.24,7.54,7.54,0,1,1,15.08,0,16.14,16.14,0,1,0,16.14-16.14,31.15,31.15,0,0,1-7.54-61.39v-8.75a7.54,7.54,0,0,1,15.08,0v8.75a31.22,31.22,0,0,1,23.68,30.24,7.54,7.54,0,1,1-15.08,0,16.14,16.14,0,1,0-16.14,16.07Z"/><path class="cls-1" d="M260.15,315.92a31.21,31.21,0,0,1-23.68,30.24v8.75a7.54,7.54,0,1,1-15.08,0v-8.75a31.21,31.21,0,0,1-23.68-30.24,7.54,7.54,0,1,1,15.08,0,16.14,16.14,0,1,0,16.14-16.14,31.15,31.15,0,0,1-7.54-61.39v-8.75a7.54,7.54,0,0,1,15.08,0v8.75a31.22,31.22,0,0,1,23.68,30.24,7.54,7.54,0,1,1-15.08,0,16.14,16.14,0,1,0-16.14,16.07A31.29,31.29,0,0,1,260.15,315.92Z"/></g></g></svg>