<svg xmlns="http://www.w3.org/2000/svg" viewBox="0 0 476.79 489.72"><defs><style>.cls-1{fill:#387bfe;}.cls-2{fill:#8dd1fe;}</style></defs><g id="Layer_2" data-name="Layer 2"><g id="Layer_1-2" data-name="Layer 1"><path class="cls-1" d="M208.45,211H74a28.79,28.79,0,0,0-28.73,28.81v167A28.78,28.78,0,0,0,74,435.57H208.45a28.79,28.79,0,0,0,28.81-28.74v-167A28.8,28.8,0,0,0,208.45,211Zm13.73,195.85a13.72,13.72,0,0,1-13.73,13.66H74a13.65,13.65,0,0,1-13.65-13.66v-167A13.71,13.71,0,0,1,74,226.06H208.45a13.78,13.78,0,0,1,13.73,13.73Z"/><path class="cls-1" d="M363.06,262a113.19,113.19,0,0,0-80.55,33.57V164.82a36.24,36.24,0,0,0-23.83-33.71,46.89,46.89,0,0,1-5-2.19C301.44,101.47,330.17,57.43,313.81,26c-17-33-74.14-33.79-126.1-6.86-21.19,10.93-39.59,25.71-52.49,41.78H95.33A35.75,35.75,0,0,0,60.86,87.22C55.28,108,41.1,124.85,23.76,131.11A36.27,36.27,0,0,0,0,164.82V436.1a44.77,44.77,0,0,0,44.72,44.72H237.79a44.7,44.7,0,0,0,41.48-28.21,113.43,113.43,0,0,0,83.79,37.11c62.67,0,113.73-51.13,113.73-113.88S425.73,262,363.06,262ZM194.65,32.54c45.93-23.83,93.74-22.85,105.74.38,11.84,22.7-13.66,62-60.19,86.35a69.27,69.27,0,0,1-18.63-32c-2.64-9.81-11.76-26.32-43.13-26.32h-23A155.48,155.48,0,0,1,194.65,32.54Zm43.14,433.2H44.72A29.65,29.65,0,0,1,15.08,436.1V164.82A21.08,21.08,0,0,1,29,145.29C51.13,137.22,68.48,117,75.42,91.14A20.67,20.67,0,0,1,95.33,76h83.11c16.21,0,25.86,5,28.58,15.16A84.94,84.94,0,0,0,225.65,126c-20.44,8.3-40.5,11.84-56.87,10.64a43,43,0,0,0,.46-4.45,32,32,0,1,0-6.72,19.08c25.27,3.32,52.34-3.7,75.34-14.18a67.51,67.51,0,0,0,15.62,8.22,20.81,20.81,0,0,1,14,19.53V314.37a113.13,113.13,0,0,0-.15,122.78A29.56,29.56,0,0,1,237.79,465.74ZM133,116.48a16,16,0,0,1,4.67-.75,16.48,16.48,0,0,1,16.44,16.44c0,.6-.15,1.2-.22,1.88C144.57,131.11,136.43,125.61,133,116.48ZM145,146.8a16.61,16.61,0,0,1-7.24,1.73,16.41,16.41,0,0,1-16.44-16.36,15.91,15.91,0,0,1,.68-4.3C127,136.47,134.92,142.72,145,146.8ZM363.06,474.63a98.76,98.76,0,1,1,98.64-98.79C461.7,430.29,417.43,474.63,363.06,474.63Z"/><path class="cls-2" d="M145,146.8a16.61,16.61,0,0,1-7.24,1.73,16.41,16.41,0,0,1-16.44-16.36,15.91,15.91,0,0,1,.68-4.3C127,136.47,134.92,142.72,145,146.8Z"/><path class="cls-2" d="M154.15,132.17c0,.6-.15,1.2-.22,1.88-9.36-2.94-17.5-8.44-20.89-17.57a16,16,0,0,1,4.67-.75A16.48,16.48,0,0,1,154.15,132.17Z"/><path class="cls-2" d="M208.45,226.06H74a13.71,13.71,0,0,0-13.65,13.73v167A13.65,13.65,0,0,0,74,420.49H208.45a13.72,13.72,0,0,0,13.73-13.66v-167A13.78,13.78,0,0,0,208.45,226.06Zm-69.38,89.67A29.58,29.58,0,0,1,146.61,374v7.85a7.54,7.54,0,0,1-15.08,0V374a29.61,29.61,0,0,1-22.1-28.58,7.54,7.54,0,0,1,15.08,0,14.6,14.6,0,1,0,14.56-14.56,29.59,29.59,0,0,1-7.54-58.22v-7.77a7.54,7.54,0,0,1,15.08,0v7.77a29.67,29.67,0,0,1,22.17,28.59,7.54,7.54,0,1,1-15.08,0,14.6,14.6,0,1,0-14.63,14.55Z"/><path class="cls-1" d="M396.53,312.67a7.53,7.53,0,0,0-10.08,3.49L331.6,429a7.54,7.54,0,1,0,13.57,6.59L400,322.75A7.54,7.54,0,0,0,396.53,312.67Z"/><path class="cls-1" d="M351.29,337.68a25.12,25.12,0,1,0-18.4,30.39A25.18,25.18,0,0,0,351.29,337.68Zm-22,15.76a10,10,0,1,1,7.39-12.14A10.15,10.15,0,0,1,329.27,353.44Z"/><path class="cls-2" d="M329.27,353.44a10,10,0,1,1,7.39-12.14A10.15,10.15,0,0,1,329.27,353.44Z"/><path class="cls-1" d="M425.65,404.5a25.11,25.11,0,1,0-18.4,30.31A25.08,25.08,0,0,0,425.65,404.5Zm-22,15.68A10,10,0,1,1,411,408,10,10,0,0,1,403.63,420.18Z"/><path class="cls-2" d="M403.63,420.18A10,10,0,1,1,411,408,10,10,0,0,1,403.63,420.18Z"/><path class="cls-1" d="M168.78,345.37A29.59,29.59,0,0,1,146.61,374v7.85a7.54,7.54,0,0,1-15.08,0V374a29.61,29.61,0,0,1-22.1-28.58,7.54,7.54,0,0,1,15.08,0,14.6,14.6,0,1,0,14.56-14.56,29.59,29.59,0,0,1-7.54-58.22v-7.77a7.54,7.54,0,0,1,15.08,0v7.77a29.67,29.67,0,0,1,22.17,28.59,7.54,7.54,0,1,1-15.08,0,14.6,14.6,0,1,0-14.63,14.55A29.71,29.71,0,0,1,168.78,345.37Z"/></g></g></svg>