<svg xmlns="http://www.w3.org/2000/svg" viewBox="0 0 497.75 338.77"><defs><style>.cls-1{fill:#387bfe;}.cls-2{fill:#8dd1fe;}</style></defs><g id="Layer_2" data-name="Layer 2"><g id="Layer_1-2" data-name="Layer 1"><path class="cls-1" d="M457.86,0H39.9A39.91,39.91,0,0,0,0,39.9v259a39.91,39.91,0,0,0,39.9,39.89h418a39.9,39.9,0,0,0,39.89-39.89V39.9A39.91,39.91,0,0,0,457.86,0Zm24.81,298.88a24.83,24.83,0,0,1-24.81,24.81H39.9a24.84,24.84,0,0,1-24.82-24.81v-13.5a39.48,39.48,0,0,0,24.82,8.9h418a39.46,39.46,0,0,0,24.81-8.9Zm0-44.5a24.88,24.88,0,0,1-24.81,24.81H39.9a24.89,24.89,0,0,1-24.82-24.81V39.9A24.89,24.89,0,0,1,39.9,15.08h418A24.88,24.88,0,0,1,482.67,39.9Z"/><path class="cls-2" d="M482.67,285.38v13.5a24.83,24.83,0,0,1-24.81,24.81H39.9a24.84,24.84,0,0,1-24.82-24.81v-13.5a39.48,39.48,0,0,0,24.82,8.9h418A39.46,39.46,0,0,0,482.67,285.38Z"/><path class="cls-1" d="M445,79.34a26.59,26.59,0,0,1-26.55-26.55,7.56,7.56,0,0,0-7.54-7.54h-324a7.56,7.56,0,0,0-7.54,7.54A26.59,26.59,0,0,1,52.79,79.34a7.56,7.56,0,0,0-7.54,7.54V207.4a7.56,7.56,0,0,0,7.54,7.54,26.58,26.58,0,0,1,26.55,26.54A7.57,7.57,0,0,0,86.88,249h324a7.57,7.57,0,0,0,7.54-7.55A26.58,26.58,0,0,1,445,214.94a7.56,7.56,0,0,0,7.54-7.54V86.88A7.56,7.56,0,0,0,445,79.34Zm-7.54,121.19A41.79,41.79,0,0,0,404,233.94H93.74a41.79,41.79,0,0,0-33.41-33.41V93.74A41.76,41.76,0,0,0,93.74,60.33H404a41.76,41.76,0,0,0,33.41,33.41Z"/><path class="cls-1" d="M248.88,86.8a60.34,60.34,0,1,0,60.4,60.34A60.37,60.37,0,0,0,248.88,86.8Zm0,105.59a45.25,45.25,0,1,1,45.32-45.25A45.28,45.28,0,0,1,248.88,192.39Z"/><path class="cls-2" d="M294.2,147.14a45.29,45.29,0,1,1-45.32-45.25A45.35,45.35,0,0,1,294.2,147.14Z"/><path class="cls-1" d="M121.27,116.22a30.92,30.92,0,1,0,30.92,30.92A31,31,0,0,0,121.27,116.22Zm0,46.76a15.84,15.84,0,1,1,15.84-15.84A15.84,15.84,0,0,1,121.27,163Z"/><path class="cls-2" d="M137.11,147.14a15.84,15.84,0,1,1-15.84-15.84A15.84,15.84,0,0,1,137.11,147.14Z"/><path class="cls-1" d="M376.48,116.22a30.92,30.92,0,1,0,30.92,30.92A31,31,0,0,0,376.48,116.22Zm0,46.76a15.84,15.84,0,1,1,15.84-15.84A15.84,15.84,0,0,1,376.48,163Z"/><path class="cls-2" d="M392.32,147.14a15.84,15.84,0,1,1-15.84-15.84A15.84,15.84,0,0,1,392.32,147.14Z"/></g></g></svg>