<svg xmlns="http://www.w3.org/2000/svg" viewBox="0 0 505.29 389.45"><defs><style>.cls-1{fill:#387bfe;}.cls-2{fill:#8dd1fe;}</style></defs><g id="Layer_2" data-name="Layer 2"><g id="Layer_1-2" data-name="Layer 1"><path class="cls-1" d="M469.09,50.08H140a39.32,39.32,0,0,0-37.7-28.81h-.91A28.73,28.73,0,0,0,73.68,0H28.81a28.85,28.85,0,0,0,0,57.69H73.68a28.79,28.79,0,0,0,27.68-21.34h.91a24.35,24.35,0,0,1,24,21l33.18,244.2a39.45,39.45,0,0,0,38.92,34.08h11.23a34.17,34.17,0,0,0-6,19.39,34.51,34.51,0,0,0,69,0,34.12,34.12,0,0,0-6-19.39H378.67a34.12,34.12,0,0,0-6,19.39,34.51,34.51,0,1,0,63-19.39h33a7.54,7.54,0,0,0,0-15.08H198.35a24.26,24.26,0,0,1-23.91-21l-3.17-23.16H441.19a36.23,36.23,0,0,0,35.67-29.79L504.69,92.76A36.18,36.18,0,0,0,469.09,50.08ZM73.68,42.61H28.81a13.77,13.77,0,0,1,0-27.53H73.68a13.77,13.77,0,0,1,0,27.53Zm333.19,293h.68a19.42,19.42,0,1,1-.68,0Zm-169.08,0h.6a19.46,19.46,0,1,1-.6,0Zm252-245.55L462,244a21.12,21.12,0,0,1-20.81,17.35H169.24L142.61,65.16H469.09A21.09,21.09,0,0,1,489.83,90.05Z"/><path class="cls-2" d="M426.63,355a19.42,19.42,0,1,1-19.76-19.39h.68A19.42,19.42,0,0,1,426.63,355Z"/><path class="cls-2" d="M257.47,355a19.42,19.42,0,1,1-19.68-19.39h.6A19.37,19.37,0,0,1,257.47,355Z"/><path class="cls-2" d="M87.41,28.81a13.79,13.79,0,0,1-13.73,13.8H28.81a13.77,13.77,0,0,1,0-27.53H73.68A13.79,13.79,0,0,1,87.41,28.81Z"/><path class="cls-1" d="M224.52,95.85a28.33,28.33,0,0,0-28.36,28.36v78.06a28.36,28.36,0,1,0,56.71,0V124.21A28.37,28.37,0,0,0,224.52,95.85Zm13.27,106.42a13.28,13.28,0,1,1-26.55,0V124.21a13.28,13.28,0,0,1,26.55,0Z"/><path class="cls-2" d="M237.79,124.21v78.06a13.28,13.28,0,1,1-26.55,0V124.21a13.28,13.28,0,0,1,26.55,0Z"/><path class="cls-1" d="M315.85,95.85a28.37,28.37,0,0,0-28.36,28.36v78.06a28.36,28.36,0,1,0,56.71,0V124.21A28.32,28.32,0,0,0,315.85,95.85Zm13.27,106.42a13.28,13.28,0,1,1-26.55,0V124.21a13.28,13.28,0,0,1,26.55,0Z"/><path class="cls-2" d="M329.12,124.21v78.06a13.28,13.28,0,1,1-26.55,0V124.21a13.28,13.28,0,0,1,26.55,0Z"/><path class="cls-1" d="M407.18,95.85a28.37,28.37,0,0,0-28.36,28.36v78.06a28.4,28.4,0,1,0,56.79,0V124.21A28.39,28.39,0,0,0,407.18,95.85Zm13.34,106.42a13.31,13.31,0,1,1-26.62,0V124.21a13.31,13.31,0,0,1,26.62,0Z"/><path class="cls-2" d="M420.52,124.21v78.06a13.31,13.31,0,1,1-26.62,0V124.21a13.31,13.31,0,0,1,26.62,0Z"/></g></g></svg>