<svg xmlns="http://www.w3.org/2000/svg" viewBox="0 0 418.47 465.37"><defs><style>.cls-1{fill:#387bfe;}.cls-2{fill:#8dd1fe;}</style></defs><g id="Layer_2" data-name="Layer 2"><g id="Layer_1-2" data-name="Layer 1"><path class="cls-1" d="M415,264.41C400.9,174.29,350.59,161.17,320.5,162a7.84,7.84,0,0,0-1.28-.16H246.07v-9.12a36.89,36.89,0,0,0-29.27-36v-41a19,19,0,1,1,38,0v12a32.55,32.55,0,1,0,65.09,0V7.54a7.54,7.54,0,1,0-15.08,0V87.63a17.46,17.46,0,1,1-34.92,0v-12a34.09,34.09,0,1,0-68.18,0v41a36.89,36.89,0,0,0-29.34,36.05v9.12c-1,0-73.38,0-74.36.16-29.86-.91-80.47,12.21-94.57,102.41C-8.39,340.36,9.78,456.2,65.22,464.87c38.84,6,72.77-44.27,90.27-79.64a35,35,0,0,0,47.06-27.68H219a35.31,35.31,0,0,0,34.84,29.94,32.85,32.85,0,0,0,9.51-1.51c21.87,43.82,54.82,84.32,89.89,78.89,44.8-7.09,65.24-83.71,65.24-152.95A305.75,305.75,0,0,0,415,264.41ZM187.47,152.72a21.76,21.76,0,0,1,43.51,0v9.12H187.47ZM167.63,372.41A20.33,20.33,0,1,1,188,352.05,20.36,20.36,0,0,1,167.63,372.41Zm86.2,0a20.33,20.33,0,1,1,20.37-20.36A20.31,20.31,0,0,1,253.83,372.41ZM350.89,450c-22.54,3.4-51.5-25-74.28-71.12a35,35,0,0,0,12.67-26.84,35.35,35.35,0,0,0-69.38-9.58H201.64a35.35,35.35,0,1,0-59,34.61c-22.93,47.14-52.34,76.4-75.12,72.93-40.19-6.33-61-107.77-49.17-183.26C27.58,208,54.28,177,95.68,177c53.93,0,33.87-.07,222-.07a4.78,4.78,0,0,0,1.81.15c43.37-1.58,71.2,29.34,80.62,89.67C411.91,342.24,391.09,443.68,350.89,450Z"/><path class="cls-2" d="M231,152.72v9.12H187.47v-9.12a21.76,21.76,0,0,1,43.51,0Z"/><path class="cls-2" d="M188,352.05a20.33,20.33,0,1,1-20.36-20.29A20.37,20.37,0,0,1,188,352.05Z"/><path class="cls-2" d="M274.2,352.05a20.33,20.33,0,1,1-20.37-20.29A20.43,20.43,0,0,1,274.2,352.05Z"/><path class="cls-1" d="M103.53,201a57.73,57.73,0,1,0,57.69,57.69A57.8,57.8,0,0,0,103.53,201Zm0,100.38a42.65,42.65,0,1,1,42.61-42.69A42.75,42.75,0,0,1,103.53,301.37Z"/><path class="cls-2" d="M103.53,216.07a42.65,42.65,0,1,0,42.61,42.61A42.73,42.73,0,0,0,103.53,216.07Zm17.27,50.15h-9.73V276A7.54,7.54,0,1,1,96,276v-9.73H86.26a7.54,7.54,0,1,1,0-15.08H96v-9.66a7.54,7.54,0,1,1,15.08,0v9.66h9.73a7.54,7.54,0,0,1,0,15.08Z"/><path class="cls-1" d="M314.92,201a57.73,57.73,0,1,0,57.77,57.69A57.74,57.74,0,0,0,314.92,201Zm0,100.38a42.65,42.65,0,1,1,42.69-42.69A42.73,42.73,0,0,1,314.92,301.37Z"/><path class="cls-2" d="M314.92,216.07a42.65,42.65,0,1,0,42.69,42.61A42.72,42.72,0,0,0,314.92,216.07ZM299,266.22h-4.68a7.54,7.54,0,1,1,0-15.08H299a7.54,7.54,0,0,1,0,15.08Zm23.45,13.12a7.54,7.54,0,1,1-15.08,0v-4.67a7.54,7.54,0,1,1,15.08,0Zm0-36.57a7.54,7.54,0,1,1-15.08,0V238a7.54,7.54,0,1,1,15.08,0Zm13.13,23.45h-4.68a7.54,7.54,0,0,1,0-15.08h4.68a7.54,7.54,0,0,1,0,15.08Z"/><path class="cls-1" d="M128.34,258.68a7.51,7.51,0,0,1-7.54,7.54h-9.73V276A7.54,7.54,0,1,1,96,276v-9.73H86.26a7.54,7.54,0,1,1,0-15.08H96v-9.66a7.54,7.54,0,1,1,15.08,0v9.66h9.73A7.56,7.56,0,0,1,128.34,258.68Z"/><path class="cls-1" d="M322.46,238v4.75a7.54,7.54,0,1,1-15.08,0V238a7.54,7.54,0,1,1,15.08,0Z"/><path class="cls-1" d="M322.46,274.67v4.67a7.54,7.54,0,1,1-15.08,0v-4.67a7.54,7.54,0,1,1,15.08,0Z"/><path class="cls-1" d="M343.13,258.68a7.47,7.47,0,0,1-7.54,7.54h-4.68a7.54,7.54,0,0,1,0-15.08h4.68A7.51,7.51,0,0,1,343.13,258.68Z"/><path class="cls-1" d="M306.55,258.68a7.51,7.51,0,0,1-7.54,7.54h-4.68a7.54,7.54,0,1,1,0-15.08H299A7.56,7.56,0,0,1,306.55,258.68Z"/></g></g></svg>